<?xml version="1.0" encoding="utf-8" standalone="no"?>
<!DOCTYPE svg PUBLIC "-//W3C//DTD SVG 1.1//EN"
  "http://www.w3.org/Graphics/SVG/1.1/DTD/svg11.dtd">
<svg xmlns:xlink="http://www.w3.org/1999/xlink" width="561.6pt" height="399.2pt" viewBox="0 0 561.6 399.2" xmlns="http://www.w3.org/2000/svg" version="1.1">
 <metadata>
  <rdf:RDF xmlns:dc="http://purl.org/dc/elements/1.1/" xmlns:cc="http://creativecommons.org/ns#" xmlns:rdf="http://www.w3.org/1999/02/22-rdf-syntax-ns#">
   <cc:Work>
    <dc:type rdf:resource="http://purl.org/dc/dcmitype/StillImage"/>
    <dc:date>2026-10-05T19:00:49.452539</dc:date>
    <dc:format>image/svg+xml</dc:format>
    <dc:creator>
     <cc:Agent>
      <dc:title>Matplotlib v3.5.1, https://matplotlib.org/</dc:title>
     </cc:Agent>
    </dc:creator>
   </cc:Work>
  </rdf:RDF>
 </metadata>
 <defs>
  <style type="text/css">*{stroke-linejoin: round; stroke-linecap: butt}</style>
 </defs>
 <g id="figure_1">
  <g id="patch_1">
   <path d="M 0 399.2 
L 561.6 399.2 
L 561.6 0 
L 0 0 
L 0 399.2 
z
" style="fill: none; opacity: 0"/>
  </g>
  <g id="axes_1">
   <g id="line2d_1">
    <path d="M 157.778498 245.807404 
L 157.778498 335.550994 
" clip-path="url(#p37bd9e57c8)" style="fill: none; stroke: #1d1d1f; stroke-width: 0.9; stroke-linecap: round"/>
   </g>
   <g id="line2d_2">
    <path d="M 157.778498 245.807404 
L 229.57337 245.807404 
" clip-path="url(#p37bd9e57c8)" style="fill: none; stroke: #1d1d1f; stroke-width: 0.9; stroke-linecap: round"/>
   </g>
   <g id="line2d_3">
    <path d="M 229.57337 245.807404 
L 229.57337 335.550994 
" clip-path="url(#p37bd9e57c8)" style="fill: none; stroke: #1d1d1f; stroke-width: 0.9; stroke-linecap: round"/>
   </g>
   <g id="line2d_4">
    <path d="M 229.57337 335.550994 
L 157.778498 335.550994 
" clip-path="url(#p37bd9e57c8)" style="fill: none; stroke: #1d1d1f; stroke-width: 0.9; stroke-linecap: round"/>
   </g>
   <g id="line2d_5">
    <path d="M 182.906704 290.679199 
L 182.896864 290.303454 
L 182.867374 289.928738 
L 182.818312 289.55608 
L 182.749815 289.1865 
L 182.662068 288.821011 
L 182.555314 288.460616 
L 182.429845 288.106301 
L 182.286004 287.759039 
L 182.124186 287.41978 
L 181.944835 287.089456 
L 181.748441 286.76897 
L 181.535543 286.459203 
L 181.306726 286.161002 
L 181.062615 285.875185 
L 180.80388 285.602535 
L 180.531231 285.3438 
L 180.245414 285.09969 
L 179.947213 284.870872 
L 179.637445 284.657975 
L 179.31696 284.461581 
L 178.986635 284.282229 
L 178.647377 284.120411 
L 178.300114 283.976571 
L 177.9458 283.851101 
L 177.585404 283.744347 
L 177.219916 283.656601 
L 176.850336 283.588103 
L 176.477677 283.539042 
L 176.102962 283.509551 
L 175.727216 283.499712 
L 175.351471 283.509551 
L 174.976756 283.539042 
L 174.604097 283.588103 
L 174.234517 283.656601 
L 173.869028 283.744347 
L 173.508633 283.851101 
L 173.154318 283.976571 
L 172.807056 284.120411 
L 172.467797 284.282229 
L 172.137473 284.461581 
L 171.816987 284.657975 
L 171.50722 284.870872 
L 171.209019 285.09969 
L 170.923202 285.3438 
L 170.650552 285.602535 
L 170.391818 285.875185 
L 170.147707 286.161002 
L 169.918889 286.459203 
L 169.705992 286.76897 
L 169.509598 287.089456 
L 169.330246 287.41978 
L 169.168428 287.759039 
L 169.024588 288.106301 
L 168.899118 288.460616 
L 168.792364 288.821011 
L 168.704618 289.1865 
L 168.636121 289.55608 
L 168.587059 289.928738 
L 168.557568 290.303454 
L 168.547729 290.679199 
" clip-path="url(#p37bd9e57c8)" style="fill: none; stroke: #1d1d1f; stroke-width: 0.9; stroke-linecap: round"/>
   </g>
   <g id="line2d_6">
    <path d="M 157.778498 156.063815 
L 157.778498 245.807404 
" clip-path="url(#p37bd9e57c8)" style="fill: none; stroke: #1d1d1f; stroke-width: 0.9; stroke-linecap: round"/>
   </g>
   <g id="line2d_7">
    <path d="M 157.778498 156.063815 
L 229.57337 156.063815 
" clip-path="url(#p37bd9e57c8)" style="fill: none; stroke: #1d1d1f; stroke-width: 0.9; stroke-linecap: round"/>
   </g>
   <g id="line2d_8">
    <path d="M 229.57337 156.063815 
L 229.57337 245.807404 
" clip-path="url(#p37bd9e57c8)" style="fill: none; stroke: #1d1d1f; stroke-width: 0.9; stroke-linecap: round"/>
   </g>
   <g id="line2d_9">
    <path d="M 229.57337 245.807404 
L 157.778498 245.807404 
" clip-path="url(#p37bd9e57c8)" style="fill: none; stroke: #1d1d1f; stroke-width: 0.9; stroke-linecap: round"/>
   </g>
   <g id="line2d_10">
    <path d="M 157.778498 66.320225 
L 157.778498 156.063815 
" clip-path="url(#p37bd9e57c8)" style="fill: none; stroke: #1d1d1f; stroke-width: 0.9; stroke-linecap: round"/>
   </g>
   <g id="line2d_11">
    <path d="M 229.57337 66.320225 
L 229.57337 156.063815 
" clip-path="url(#p37bd9e57c8)" style="fill: none; stroke: #1d1d1f; stroke-width: 0.9; stroke-linecap: round"/>
   </g>
   <g id="line2d_12">
    <path d="M 182.906704 111.19202 
L 182.896864 110.816274 
L 182.867374 110.441559 
L 182.818312 110.068901 
L 182.749815 109.69932 
L 182.662068 109.333832 
L 182.555314 108.973436 
L 182.429845 108.619122 
L 182.286004 108.271859 
L 182.124186 107.932601 
L 181.944835 107.602276 
L 181.748441 107.281791 
L 181.535543 106.972023 
L 181.306726 106.673822 
L 181.062615 106.388005 
L 180.80388 106.115356 
L 180.531231 105.856621 
L 180.245414 105.61251 
L 179.947213 105.383693 
L 179.637445 105.170795 
L 179.31696 104.974401 
L 178.986635 104.79505 
L 178.647377 104.633232 
L 178.300114 104.489391 
L 177.9458 104.363922 
L 177.585404 104.257168 
L 177.219916 104.169422 
L 176.850336 104.100924 
L 176.477677 104.051863 
L 176.102962 104.022372 
L 175.727216 104.012533 
L 175.351471 104.022372 
L 174.976756 104.051863 
L 174.604097 104.100924 
L 174.234517 104.169422 
L 173.869028 104.257168 
L 173.508633 104.363922 
L 173.154318 104.489391 
L 172.807056 104.633232 
L 172.467797 104.79505 
L 172.137473 104.974401 
L 171.816987 105.170795 
L 171.50722 105.383693 
L 171.209019 105.61251 
L 170.923202 105.856621 
L 170.650552 106.115356 
L 170.391818 106.388005 
L 170.147707 106.673822 
L 169.918889 106.972023 
L 169.705992 107.281791 
L 169.509598 107.602276 
L 169.330246 107.932601 
L 169.168428 108.271859 
L 169.024588 108.619122 
L 168.899118 108.973436 
L 168.792364 109.333832 
L 168.704618 109.69932 
L 168.636121 110.068901 
L 168.587059 110.441559 
L 168.557568 110.816274 
L 168.547729 111.19202 
" clip-path="url(#p37bd9e57c8)" style="fill: none; stroke: #1d1d1f; stroke-width: 0.9; stroke-linecap: round"/>
   </g>
   <g id="line2d_13">
    <path d="M 229.57337 66.320225 
L 157.778498 66.320225 
" clip-path="url(#p37bd9e57c8)" style="fill: none; stroke: #1d1d1f; stroke-width: 0.9; stroke-linecap: round"/>
   </g>
   <g id="line2d_14">
    <path d="M 157.778498 111.19202 
L 209.507153 111.19202 
" clip-path="url(#p37bd9e57c8)" style="fill: none; stroke: #1d1d1f; stroke-width: 0.9; stroke-linecap: round"/>
   </g>
   <g id="line2d_15">
    <path d="M 175.727216 80.398105 
L 175.727216 140.292972 
" clip-path="url(#p37bd9e57c8)" style="fill: none; stroke: #1d1d1f; stroke-width: 0.9; stroke-linecap: round"/>
   </g>
   <g id="line2d_16">
    <path d="M 157.778498 290.679199 
L 201.402346 290.679199 
" clip-path="url(#p37bd9e57c8)" style="fill: none; stroke: #1d1d1f; stroke-width: 0.9; stroke-linecap: round"/>
   </g>
   <g id="line2d_17">
    <path d="M 175.727216 264.066471 
L 175.727216 327.193218 
" clip-path="url(#p37bd9e57c8)" style="fill: none; stroke: #1d1d1f; stroke-width: 0.9; stroke-linecap: round"/>
   </g>
   <g id="line2d_18">
    <path d="M 14.261538 11.138462 
L 547.338462 11.138462 
" clip-path="url(#p37bd9e57c8)" style="fill: none; stroke: #1d1d1f; stroke-width: 0.9; stroke-linecap: round"/>
   </g>
   <g id="line2d_19">
    <path d="M 547.338462 11.138462 
L 547.338462 388.061538 
" clip-path="url(#p37bd9e57c8)" style="fill: none; stroke: #1d1d1f; stroke-width: 0.9; stroke-linecap: round"/>
   </g>
   <g id="line2d_20">
    <path d="M 547.338462 388.061538 
L 14.261538 388.061538 
" clip-path="url(#p37bd9e57c8)" style="fill: none; stroke: #1d1d1f; stroke-width: 0.9; stroke-linecap: round"/>
   </g>
   <g id="line2d_21">
    <path d="M 14.261538 388.061538 
L 14.261538 11.138462 
" clip-path="url(#p37bd9e57c8)" style="fill: none; stroke: #1d1d1f; stroke-width: 0.9; stroke-linecap: round"/>
   </g>
   <g id="line2d_22">
    <path d="M 59.133333 20.112821 
L 59.133333 379.087179 
" clip-path="url(#p37bd9e57c8)" style="fill: none; stroke: #1d1d1f; stroke-width: 0.9; stroke-linecap: round"/>
   </g>
   <g id="line2d_23">
    <path d="M 59.133333 379.087179 
L 59.133333 379.087179 
" clip-path="url(#p37bd9e57c8)" style="fill: none; stroke: #1d1d1f; stroke-width: 0.9; stroke-linecap: round"/>
   </g>
   <g id="line2d_24">
    <path d="M 59.133333 379.087179 
L 538.364103 379.087179 
" clip-path="url(#p37bd9e57c8)" style="fill: none; stroke: #1d1d1f; stroke-width: 0.9; stroke-linecap: round"/>
   </g>
   <g id="line2d_25">
    <path d="M 538.364103 379.087179 
L 538.364103 20.112821 
" clip-path="url(#p37bd9e57c8)" style="fill: none; stroke: #1d1d1f; stroke-width: 0.9; stroke-linecap: round"/>
   </g>
   <g id="line2d_26">
    <path d="M 538.364103 20.112821 
L 59.133333 20.112821 
" clip-path="url(#p37bd9e57c8)" style="fill: none; stroke: #1d1d1f; stroke-width: 0.9; stroke-linecap: round"/>
   </g>
   <g id="line2d_27">
    <path d="M 296.721437 229.032659 
L 296.721437 318.776248 
" clip-path="url(#p37bd9e57c8)" style="fill: none; stroke: #1d1d1f; stroke-width: 0.9; stroke-linecap: round"/>
   </g>
   <g id="line2d_28">
    <path d="M 296.721437 229.032659 
L 368.516309 229.032659 
" clip-path="url(#p37bd9e57c8)" style="fill: none; stroke: #1d1d1f; stroke-width: 0.9; stroke-linecap: round"/>
   </g>
   <g id="line2d_29">
    <path d="M 368.516309 229.032659 
L 368.516309 318.776248 
" clip-path="url(#p37bd9e57c8)" style="fill: none; stroke: #1d1d1f; stroke-width: 0.9; stroke-linecap: round"/>
   </g>
   <g id="line2d_30">
    <path d="M 339.79836 273.904453 
L 339.788521 273.528708 
L 339.75903 273.153993 
L 339.709969 272.781334 
L 339.641471 272.411754 
L 339.553725 272.046265 
L 339.446971 271.68587 
L 339.321502 271.331555 
L 339.177661 270.984293 
L 339.015843 270.645035 
L 338.836491 270.31471 
L 338.640097 269.994225 
L 338.4272 269.684457 
L 338.198382 269.386256 
L 337.954272 269.100439 
L 337.695537 268.827789 
L 337.422887 268.569055 
L 337.137071 268.324944 
L 336.83887 268.096126 
L 336.529102 267.883229 
L 336.208616 267.686835 
L 335.878292 267.507484 
L 335.539033 267.345666 
L 335.191771 267.201825 
L 334.837456 267.076355 
L 334.477061 266.969601 
L 334.111572 266.881855 
L 333.741992 266.813358 
L 333.369334 266.764296 
L 332.994618 266.734806 
L 332.618873 266.724966 
L 332.243128 266.734806 
L 331.868412 266.764296 
L 331.495754 266.813358 
L 331.126174 266.881855 
L 330.760685 266.969601 
L 330.400289 267.076355 
L 330.045975 267.201825 
L 329.698712 267.345666 
L 329.359454 267.507484 
L 329.029129 267.686835 
L 328.708644 267.883229 
L 328.398876 268.096126 
L 328.100675 268.324944 
L 327.814858 268.569055 
L 327.542209 268.827789 
L 327.283474 269.100439 
L 327.039363 269.386256 
L 326.810546 269.684457 
L 326.597648 269.994225 
L 326.401255 270.31471 
L 326.221903 270.645035 
L 326.060085 270.984293 
L 325.916244 271.331555 
L 325.790775 271.68587 
L 325.684021 272.046265 
L 325.596275 272.411754 
L 325.527777 272.781334 
L 325.478716 273.153993 
L 325.449225 273.528708 
L 325.439386 273.904453 
" clip-path="url(#p37bd9e57c8)" style="fill: none; stroke: #1d1d1f; stroke-width: 0.9; stroke-linecap: round"/>
   </g>
   <g id="line2d_31">
    <path d="M 296.721437 318.776248 
L 368.516309 318.776248 
" clip-path="url(#p37bd9e57c8)" style="fill: none; stroke: #1d1d1f; stroke-width: 0.9; stroke-linecap: round"/>
   </g>
   <g id="line2d_32">
    <path d="M 300.311181 229.032659 
L 364.926565 229.032659 
" clip-path="url(#p37bd9e57c8)" style="fill: none; stroke: #1d1d1f; stroke-width: 0.9; stroke-linecap: round"/>
   </g>
   <g id="line2d_33">
    <path d="M 364.926565 157.237787 
L 300.311181 157.237787 
" clip-path="url(#p37bd9e57c8)" style="fill: none; stroke: #1d1d1f; stroke-width: 0.9; stroke-linecap: round"/>
   </g>
   <g id="line2d_34">
    <path d="M 364.926565 229.032659 
L 368.516309 229.032659 
" clip-path="url(#p37bd9e57c8)" style="fill: none; stroke: #1d1d1f; stroke-width: 0.9; stroke-linecap: round"/>
   </g>
   <g id="line2d_35">
    <path d="M 296.721437 229.032659 
L 300.311181 229.032659 
" clip-path="url(#p37bd9e57c8)" style="fill: none; stroke: #1d1d1f; stroke-width: 0.9; stroke-linecap: round"/>
   </g>
   <g id="line2d_36">
    <path d="M 368.516309 229.032659 
L 368.516309 157.237787 
" clip-path="url(#p37bd9e57c8)" style="fill: none; stroke: #1d1d1f; stroke-width: 0.9; stroke-linecap: round"/>
   </g>
   <g id="line2d_37">
    <path d="M 368.516309 157.237787 
L 364.926565 157.237787 
" clip-path="url(#p37bd9e57c8)" style="fill: none; stroke: #1d1d1f; stroke-width: 0.9; stroke-linecap: round"/>
   </g>
   <g id="line2d_38">
    <path d="M 300.311181 157.237787 
L 296.721437 157.237787 
" clip-path="url(#p37bd9e57c8)" style="fill: none; stroke: #1d1d1f; stroke-width: 0.9; stroke-linecap: round"/>
   </g>
   <g id="line2d_39">
    <path d="M 296.721437 157.237787 
L 296.721437 229.032659 
" clip-path="url(#p37bd9e57c8)" style="fill: none; stroke: #1d1d1f; stroke-width: 0.9; stroke-linecap: round"/>
   </g>
   <g id="line2d_40">
    <path d="M 296.721437 67.494197 
L 296.721437 157.237787 
" clip-path="url(#p37bd9e57c8)" style="fill: none; stroke: #1d1d1f; stroke-width: 0.9; stroke-linecap: round"/>
   </g>
   <g id="line2d_41">
    <path d="M 296.721437 67.494197 
L 368.516309 67.494197 
" clip-path="url(#p37bd9e57c8)" style="fill: none; stroke: #1d1d1f; stroke-width: 0.9; stroke-linecap: round"/>
   </g>
   <g id="line2d_42">
    <path d="M 368.516309 67.494197 
L 368.516309 157.237787 
" clip-path="url(#p37bd9e57c8)" style="fill: none; stroke: #1d1d1f; stroke-width: 0.9; stroke-linecap: round"/>
   </g>
   <g id="line2d_43">
    <path d="M 339.79836 112.365992 
L 339.788521 111.990247 
L 339.75903 111.615531 
L 339.709969 111.242873 
L 339.641471 110.873293 
L 339.553725 110.507804 
L 339.446971 110.147408 
L 339.321502 109.793094 
L 339.177661 109.445831 
L 339.015843 109.106573 
L 338.836491 108.776248 
L 338.640097 108.455763 
L 338.4272 108.145995 
L 338.198382 107.847794 
L 337.954272 107.561977 
L 337.695537 107.289328 
L 337.422887 107.030593 
L 337.137071 106.786482 
L 336.83887 106.557665 
L 336.529102 106.344767 
L 336.208616 106.148374 
L 335.878292 105.969022 
L 335.539033 105.807204 
L 335.191771 105.663363 
L 334.837456 105.537894 
L 334.477061 105.43114 
L 334.111572 105.343394 
L 333.741992 105.274896 
L 333.369334 105.225835 
L 332.994618 105.196344 
L 332.618873 105.186505 
L 332.243128 105.196344 
L 331.868412 105.225835 
L 331.495754 105.274896 
L 331.126174 105.343394 
L 330.760685 105.43114 
L 330.400289 105.537894 
L 330.045975 105.663363 
L 329.698712 105.807204 
L 329.359454 105.969022 
L 329.029129 106.148374 
L 328.708644 106.344767 
L 328.398876 106.557665 
L 328.100675 106.786482 
L 327.814858 107.030593 
L 327.542209 107.289328 
L 327.283474 107.561977 
L 327.039363 107.847794 
L 326.810546 108.145995 
L 326.597648 108.455763 
L 326.401255 108.776248 
L 326.221903 109.106573 
L 326.060085 109.445831 
L 325.916244 109.793094 
L 325.790775 110.147408 
L 325.684021 110.507804 
L 325.596275 110.873293 
L 325.527777 111.242873 
L 325.478716 111.615531 
L 325.449225 111.990247 
L 325.439386 112.365992 
" clip-path="url(#p37bd9e57c8)" style="fill: none; stroke: #1d1d1f; stroke-width: 0.9; stroke-linecap: round"/>
   </g>
   <g id="line2d_44">
    <path d="M 296.721437 157.237787 
L 368.516309 157.237787 
" clip-path="url(#p37bd9e57c8)" style="fill: none; stroke: #1d1d1f; stroke-width: 0.9; stroke-linecap: round"/>
   </g>
   <g id="line2d_45">
    <path d="M 300.311181 67.494197 
L 364.926565 67.494197 
" clip-path="url(#p37bd9e57c8)" style="fill: none; stroke: #1d1d1f; stroke-width: 0.9; stroke-linecap: round"/>
   </g>
   <g id="line2d_46">
    <path d="M 364.926565 67.494197 
L 368.516309 67.494197 
" clip-path="url(#p37bd9e57c8)" style="fill: none; stroke: #1d1d1f; stroke-width: 0.9; stroke-linecap: round"/>
   </g>
   <g id="line2d_47">
    <path d="M 296.721437 67.494197 
L 300.311181 67.494197 
" clip-path="url(#p37bd9e57c8)" style="fill: none; stroke: #1d1d1f; stroke-width: 0.9; stroke-linecap: round"/>
   </g>
   <g id="line2d_48">
    <path d="M 306.664245 112.365992 
L 358.854334 112.365992 
" clip-path="url(#p37bd9e57c8)" style="fill: none; stroke: #1d1d1f; stroke-width: 0.9; stroke-linecap: round"/>
   </g>
   <g id="line2d_49">
    <path d="M 332.75929 84.334584 
L 332.75929 146.45102 
" clip-path="url(#p37bd9e57c8)" style="fill: none; stroke: #1d1d1f; stroke-width: 0.9; stroke-linecap: round"/>
   </g>
   <g id="line2d_50">
    <path d="M 332.618873 240.152339 
L 332.618873 304.184554 
" clip-path="url(#p37bd9e57c8)" style="fill: none; stroke: #1d1d1f; stroke-width: 0.9; stroke-linecap: round"/>
   </g>
   <g id="line2d_51">
    <path d="M 304.219564 273.904453 
L 357.031976 273.904453 
" clip-path="url(#p37bd9e57c8)" style="fill: none; stroke: #1d1d1f; stroke-width: 0.9; stroke-linecap: round"/>
   </g>
  </g>
 </g>
 <defs>
  <clipPath id="p37bd9e57c8">
   <rect x="3.6" y="3.6" width="554.4" height="392"/>
  </clipPath>
 </defs>
</svg>
